<?xml version="1.0" encoding="UTF-8" standalone="no"?><svg xmlns="http://www.w3.org/2000/svg" xmlns:xlink="http://www.w3.org/1999/xlink" contentStyleType="text/css" height="671px" preserveAspectRatio="none" style="width:1549px;height:671px;background:#FFFFFF;" version="1.1" viewBox="0 0 1549 671" width="1549px" zoomAndPan="magnify"><defs/><g><!--MD5=[9540edcba6825c1ffd08236bbb176037]
class PhysicalState--><g id="elem_PhysicalState"><rect codeLine="2" fill="#F1F1F1" height="48" id="PhysicalState" rx="2.5" ry="2.5" style="stroke:#181818;stroke-width:0.5;" width="123" x="7" y="382"/><ellipse cx="22" cy="398" fill="#EB937F" rx="11" ry="11" style="stroke:#181818;stroke-width:1.0;"/><path d="M26.1094,404 L18.3906,404 L18.3906,391.6094 L26.1094,391.6094 L26.1094,393.7656 L20.8438,393.7656 L20.8438,396.4375 L25.6094,396.4375 L25.6094,398.5938 L20.8438,398.5938 L20.8438,401.8438 L26.1094,401.8438 L26.1094,404 Z " fill="#000000"/><text fill="#000000" font-family="sans-serif" font-size="14" lengthAdjust="spacing" textLength="91" x="36" y="402.8467">PhysicalState</text><line style="stroke:#181818;stroke-width:0.5;" x1="8" x2="129" y1="414" y2="414"/><line style="stroke:#181818;stroke-width:0.5;" x1="8" x2="129" y1="422" y2="422"/></g><!--MD5=[31c73b99249b91aa01944a23406d172b]
class BallAction--><g id="elem_BallAction"><rect codeLine="3" fill="#F1F1F1" height="48" id="BallAction" rx="2.5" ry="2.5" style="stroke:#181818;stroke-width:0.5;" width="99" x="165" y="382"/><ellipse cx="180" cy="398" fill="#EB937F" rx="11" ry="11" style="stroke:#181818;stroke-width:1.0;"/><path d="M184.1094,404 L176.3906,404 L176.3906,391.6094 L184.1094,391.6094 L184.1094,393.7656 L178.8438,393.7656 L178.8438,396.4375 L183.6094,396.4375 L183.6094,398.5938 L178.8438,398.5938 L178.8438,401.8438 L184.1094,401.8438 L184.1094,404 Z " fill="#000000"/><text fill="#000000" font-family="sans-serif" font-size="14" lengthAdjust="spacing" textLength="67" x="194" y="402.8467">BallAction</text><line style="stroke:#181818;stroke-width:0.5;" x1="166" x2="263" y1="414" y2="414"/><line style="stroke:#181818;stroke-width:0.5;" x1="166" x2="263" y1="422" y2="422"/></g><!--MD5=[0e15573b0cd65ebabdc8e2e1c5388a78]
class FieldZone--><g id="elem_FieldZone"><rect codeLine="4" fill="#F1F1F1" height="48" id="FieldZone" rx="2.5" ry="2.5" style="stroke:#181818;stroke-width:0.5;" width="101" x="94" y="507"/><ellipse cx="109" cy="523" fill="#EB937F" rx="11" ry="11" style="stroke:#181818;stroke-width:1.0;"/><path d="M113.1094,529 L105.3906,529 L105.3906,516.6094 L113.1094,516.6094 L113.1094,518.7656 L107.8438,518.7656 L107.8438,521.4375 L112.6094,521.4375 L112.6094,523.5938 L107.8438,523.5938 L107.8438,526.8438 L113.1094,526.8438 L113.1094,529 Z " fill="#000000"/><text fill="#000000" font-family="sans-serif" font-size="14" lengthAdjust="spacing" textLength="69" x="123" y="527.8467">FieldZone</text><line style="stroke:#181818;stroke-width:0.5;" x1="95" x2="194" y1="539" y2="539"/><line style="stroke:#181818;stroke-width:0.5;" x1="95" x2="194" y1="547" y2="547"/></g><!--MD5=[b5331bc6b6919ce7b915dac8f8695226]
class PlayerAction--><g id="elem_PlayerAction"><rect codeLine="5" fill="#F1F1F1" height="48" id="PlayerAction" rx="2.5" ry="2.5" style="stroke:#181818;stroke-width:0.5;" width="116" x="230.5" y="507"/><ellipse cx="245.5" cy="523" fill="#EB937F" rx="11" ry="11" style="stroke:#181818;stroke-width:1.0;"/><path d="M249.6094,529 L241.8906,529 L241.8906,516.6094 L249.6094,516.6094 L249.6094,518.7656 L244.3438,518.7656 L244.3438,521.4375 L249.1094,521.4375 L249.1094,523.5938 L244.3438,523.5938 L244.3438,526.8438 L249.6094,526.8438 L249.6094,529 Z " fill="#000000"/><text fill="#000000" font-family="sans-serif" font-size="14" lengthAdjust="spacing" textLength="84" x="259.5" y="527.8467">PlayerAction</text><line style="stroke:#181818;stroke-width:0.5;" x1="231.5" x2="345.5" y1="539" y2="539"/><line style="stroke:#181818;stroke-width:0.5;" x1="231.5" x2="345.5" y1="547" y2="547"/></g><!--MD5=[729e0b5a3e91598f0715c567b69be41b]
class ActionPhase--><g id="elem_ActionPhase"><rect codeLine="6" fill="#F1F1F1" height="48" id="ActionPhase" rx="2.5" ry="2.5" style="stroke:#181818;stroke-width:0.5;" width="118" x="381.5" y="507"/><ellipse cx="396.5" cy="523" fill="#EB937F" rx="11" ry="11" style="stroke:#181818;stroke-width:1.0;"/><path d="M400.6094,529 L392.8906,529 L392.8906,516.6094 L400.6094,516.6094 L400.6094,518.7656 L395.3438,518.7656 L395.3438,521.4375 L400.1094,521.4375 L400.1094,523.5938 L395.3438,523.5938 L395.3438,526.8438 L400.6094,526.8438 L400.6094,529 Z " fill="#000000"/><text fill="#000000" font-family="sans-serif" font-size="14" lengthAdjust="spacing" textLength="86" x="410.5" y="527.8467">ActionPhase</text><line style="stroke:#181818;stroke-width:0.5;" x1="382.5" x2="498.5" y1="539" y2="539"/><line style="stroke:#181818;stroke-width:0.5;" x1="382.5" x2="498.5" y1="547" y2="547"/></g><!--MD5=[6774717c86305615677f1b0e47e00de9]
class PlayingPosition--><g id="elem_PlayingPosition"><rect codeLine="7" fill="#F1F1F1" height="48" id="PlayingPosition" rx="2.5" ry="2.5" style="stroke:#181818;stroke-width:0.5;" width="135" x="535" y="507"/><ellipse cx="550" cy="523" fill="#EB937F" rx="11" ry="11" style="stroke:#181818;stroke-width:1.0;"/><path d="M554.1094,529 L546.3906,529 L546.3906,516.6094 L554.1094,516.6094 L554.1094,518.7656 L548.8438,518.7656 L548.8438,521.4375 L553.6094,521.4375 L553.6094,523.5938 L548.8438,523.5938 L548.8438,526.8438 L554.1094,526.8438 L554.1094,529 Z " fill="#000000"/><text fill="#000000" font-family="sans-serif" font-size="14" lengthAdjust="spacing" textLength="103" x="564" y="527.8467">PlayingPosition</text><line style="stroke:#181818;stroke-width:0.5;" x1="536" x2="669" y1="539" y2="539"/><line style="stroke:#181818;stroke-width:0.5;" x1="536" x2="669" y1="547" y2="547"/></g><!--MD5=[396e6f53fc42be919fe99d67d100e912]
class TeamPhase--><g id="elem_TeamPhase"><rect codeLine="8" fill="#F1F1F1" height="48" id="TeamPhase" rx="2.5" ry="2.5" style="stroke:#181818;stroke-width:0.5;" width="114" x="838.5" y="616"/><ellipse cx="853.5" cy="632" fill="#EB937F" rx="11" ry="11" style="stroke:#181818;stroke-width:1.0;"/><path d="M857.6094,638 L849.8906,638 L849.8906,625.6094 L857.6094,625.6094 L857.6094,627.7656 L852.3438,627.7656 L852.3438,630.4375 L857.1094,630.4375 L857.1094,632.5938 L852.3438,632.5938 L852.3438,635.8438 L857.6094,635.8438 L857.6094,638 Z " fill="#000000"/><text fill="#000000" font-family="sans-serif" font-size="14" lengthAdjust="spacing" textLength="82" x="867.5" y="636.8467">TeamPhase</text><line style="stroke:#181818;stroke-width:0.5;" x1="839.5" x2="951.5" y1="648" y2="648"/><line style="stroke:#181818;stroke-width:0.5;" x1="839.5" x2="951.5" y1="656" y2="656"/></g><!--MD5=[23f58ee4d8e24b7b3b7ec288a36b202e]
class InjuryStatus--><g id="elem_InjuryStatus"><rect codeLine="9" fill="#F1F1F1" height="48" id="InjuryStatus" rx="2.5" ry="2.5" style="stroke:#181818;stroke-width:0.5;" width="112" x="705.5" y="507"/><ellipse cx="720.5" cy="523" fill="#EB937F" rx="11" ry="11" style="stroke:#181818;stroke-width:1.0;"/><path d="M724.6094,529 L716.8906,529 L716.8906,516.6094 L724.6094,516.6094 L724.6094,518.7656 L719.3438,518.7656 L719.3438,521.4375 L724.1094,521.4375 L724.1094,523.5938 L719.3438,523.5938 L719.3438,526.8438 L724.6094,526.8438 L724.6094,529 Z " fill="#000000"/><text fill="#000000" font-family="sans-serif" font-size="14" lengthAdjust="spacing" textLength="80" x="734.5" y="527.8467">InjuryStatus</text><line style="stroke:#181818;stroke-width:0.5;" x1="706.5" x2="816.5" y1="539" y2="539"/><line style="stroke:#181818;stroke-width:0.5;" x1="706.5" x2="816.5" y1="547" y2="547"/></g><!--MD5=[1a5c25006ac8651b9a825c040909d51f]
class MatchPeriod--><g id="elem_MatchPeriod"><rect codeLine="10" fill="#F1F1F1" height="48" id="MatchPeriod" rx="2.5" ry="2.5" style="stroke:#181818;stroke-width:0.5;" width="118" x="260.5" y="257"/><ellipse cx="275.5" cy="273" fill="#EB937F" rx="11" ry="11" style="stroke:#181818;stroke-width:1.0;"/><path d="M279.6094,279 L271.8906,279 L271.8906,266.6094 L279.6094,266.6094 L279.6094,268.7656 L274.3438,268.7656 L274.3438,271.4375 L279.1094,271.4375 L279.1094,273.5938 L274.3438,273.5938 L274.3438,276.8438 L279.6094,276.8438 L279.6094,279 Z " fill="#000000"/><text fill="#000000" font-family="sans-serif" font-size="14" lengthAdjust="spacing" textLength="86" x="289.5" y="277.8467">MatchPeriod</text><line style="stroke:#181818;stroke-width:0.5;" x1="261.5" x2="377.5" y1="289" y2="289"/><line style="stroke:#181818;stroke-width:0.5;" x1="261.5" x2="377.5" y1="297" y2="297"/></g><!--MD5=[fd353cc8ba87c52c1662d5210b818049]
class GamePhase--><g id="elem_GamePhase"><rect codeLine="11" fill="#F1F1F1" height="48" id="GamePhase" rx="2.5" ry="2.5" style="stroke:#181818;stroke-width:0.5;" width="116" x="413.5" y="257"/><ellipse cx="428.5" cy="273" fill="#EB937F" rx="11" ry="11" style="stroke:#181818;stroke-width:1.0;"/><path d="M432.6094,279 L424.8906,279 L424.8906,266.6094 L432.6094,266.6094 L432.6094,268.7656 L427.3438,268.7656 L427.3438,271.4375 L432.1094,271.4375 L432.1094,273.5938 L427.3438,273.5938 L427.3438,276.8438 L432.6094,276.8438 L432.6094,279 Z " fill="#000000"/><text fill="#000000" font-family="sans-serif" font-size="14" lengthAdjust="spacing" textLength="84" x="442.5" y="277.8467">GamePhase</text><line style="stroke:#181818;stroke-width:0.5;" x1="414.5" x2="528.5" y1="289" y2="289"/><line style="stroke:#181818;stroke-width:0.5;" x1="414.5" x2="528.5" y1="297" y2="297"/></g><!--MD5=[56ae3f0d15f0ff20b4e279acc85c6f70]
class SetPieceStatus--><g id="elem_SetPieceStatus"><rect codeLine="12" fill="#F1F1F1" height="48" id="SetPieceStatus" rx="2.5" ry="2.5" style="stroke:#181818;stroke-width:0.5;" width="137" x="565" y="257"/><ellipse cx="580" cy="273" fill="#EB937F" rx="11" ry="11" style="stroke:#181818;stroke-width:1.0;"/><path d="M584.1094,279 L576.3906,279 L576.3906,266.6094 L584.1094,266.6094 L584.1094,268.7656 L578.8438,268.7656 L578.8438,271.4375 L583.6094,271.4375 L583.6094,273.5938 L578.8438,273.5938 L578.8438,276.8438 L584.1094,276.8438 L584.1094,279 Z " fill="#000000"/><text fill="#000000" font-family="sans-serif" font-size="14" lengthAdjust="spacing" textLength="105" x="594" y="277.8467">SetPieceStatus</text><line style="stroke:#181818;stroke-width:0.5;" x1="566" x2="701" y1="289" y2="289"/><line style="stroke:#181818;stroke-width:0.5;" x1="566" x2="701" y1="297" y2="297"/></g><!--MD5=[9731e85f1a2420b35d546c8dd1cd6cdd]
class Formation--><g id="elem_Formation"><rect codeLine="13" fill="#F1F1F1" height="48" id="Formation" rx="2.5" ry="2.5" style="stroke:#181818;stroke-width:0.5;" width="101" x="988" y="616"/><ellipse cx="1003" cy="632" fill="#EB937F" rx="11" ry="11" style="stroke:#181818;stroke-width:1.0;"/><path d="M1007.1094,638 L999.3906,638 L999.3906,625.6094 L1007.1094,625.6094 L1007.1094,627.7656 L1001.8438,627.7656 L1001.8438,630.4375 L1006.6094,630.4375 L1006.6094,632.5938 L1001.8438,632.5938 L1001.8438,635.8438 L1007.1094,635.8438 L1007.1094,638 Z " fill="#000000"/><text fill="#000000" font-family="sans-serif" font-size="14" lengthAdjust="spacing" textLength="69" x="1017" y="636.8467">Formation</text><line style="stroke:#181818;stroke-width:0.5;" x1="989" x2="1088" y1="648" y2="648"/><line style="stroke:#181818;stroke-width:0.5;" x1="989" x2="1088" y1="656" y2="656"/></g><!--MD5=[94c7f9372c62fd735ca66cf2c8b73ece]
class Ball--><g id="elem_Ball"><rect codeLine="16" fill="#F1F1F1" height="48" id="Ball" rx="2.5" ry="2.5" style="stroke:#181818;stroke-width:0.5;" width="56" x="737.5" y="257"/><ellipse cx="752.5" cy="273" fill="#ADD1B2" rx="11" ry="11" style="stroke:#181818;stroke-width:1.0;"/><path d="M755.4688,278.6406 Q754.8906,278.9375 754.25,279.0781 Q753.6094,279.2344 752.9063,279.2344 Q750.4063,279.2344 749.0781,277.5938 Q747.7656,275.9375 747.7656,272.8125 Q747.7656,269.6875 749.0781,268.0313 Q750.4063,266.375 752.9063,266.375 Q753.6094,266.375 754.25,266.5313 Q754.9063,266.6875 755.4688,266.9844 L755.4688,269.7031 Q754.8438,269.125 754.25,268.8594 Q753.6563,268.5781 753.0313,268.5781 Q751.6875,268.5781 751,269.6563 Q750.3125,270.7188 750.3125,272.8125 Q750.3125,274.9063 751,275.9844 Q751.6875,277.0469 753.0313,277.0469 Q753.6563,277.0469 754.25,276.7813 Q754.8438,276.5 755.4688,275.9219 L755.4688,278.6406 Z " fill="#000000"/><text fill="#000000" font-family="sans-serif" font-size="14" lengthAdjust="spacing" textLength="24" x="766.5" y="277.8467">Ball</text><line style="stroke:#181818;stroke-width:0.5;" x1="738.5" x2="792.5" y1="289" y2="289"/><line style="stroke:#181818;stroke-width:0.5;" x1="738.5" x2="792.5" y1="297" y2="297"/></g><!--MD5=[2cb47ba637a0d19583e6199456f6ad0b]
class Player--><g id="elem_Player"><rect codeLine="17" fill="#F1F1F1" height="48" id="Player" rx="2.5" ry="2.5" style="stroke:#181818;stroke-width:0.5;" width="73" x="544" y="382"/><ellipse cx="559" cy="398" fill="#ADD1B2" rx="11" ry="11" style="stroke:#181818;stroke-width:1.0;"/><path d="M561.9688,403.6406 Q561.3906,403.9375 560.75,404.0781 Q560.1094,404.2344 559.4063,404.2344 Q556.9063,404.2344 555.5781,402.5938 Q554.2656,400.9375 554.2656,397.8125 Q554.2656,394.6875 555.5781,393.0313 Q556.9063,391.375 559.4063,391.375 Q560.1094,391.375 560.75,391.5313 Q561.4063,391.6875 561.9688,391.9844 L561.9688,394.7031 Q561.3438,394.125 560.75,393.8594 Q560.1563,393.5781 559.5313,393.5781 Q558.1875,393.5781 557.5,394.6563 Q556.8125,395.7188 556.8125,397.8125 Q556.8125,399.9063 557.5,400.9844 Q558.1875,402.0469 559.5313,402.0469 Q560.1563,402.0469 560.75,401.7813 Q561.3438,401.5 561.9688,400.9219 L561.9688,403.6406 Z " fill="#000000"/><text fill="#000000" font-family="sans-serif" font-size="14" lengthAdjust="spacing" textLength="41" x="573" y="402.8467">Player</text><line style="stroke:#181818;stroke-width:0.5;" x1="545" x2="616" y1="414" y2="414"/><line style="stroke:#181818;stroke-width:0.5;" x1="545" x2="616" y1="422" y2="422"/></g><!--MD5=[dfb0845b8492ffe07b1ce50e003034d7]
class Team--><g id="elem_Team"><rect codeLine="18" fill="#F1F1F1" height="48" id="Team" rx="2.5" ry="2.5" style="stroke:#181818;stroke-width:0.5;" width="71" x="932" y="507"/><ellipse cx="947" cy="523" fill="#ADD1B2" rx="11" ry="11" style="stroke:#181818;stroke-width:1.0;"/><path d="M949.9688,528.6406 Q949.3906,528.9375 948.75,529.0781 Q948.1094,529.2344 947.4063,529.2344 Q944.9063,529.2344 943.5781,527.5938 Q942.2656,525.9375 942.2656,522.8125 Q942.2656,519.6875 943.5781,518.0313 Q944.9063,516.375 947.4063,516.375 Q948.1094,516.375 948.75,516.5313 Q949.4063,516.6875 949.9688,516.9844 L949.9688,519.7031 Q949.3438,519.125 948.75,518.8594 Q948.1563,518.5781 947.5313,518.5781 Q946.1875,518.5781 945.5,519.6563 Q944.8125,520.7188 944.8125,522.8125 Q944.8125,524.9063 945.5,525.9844 Q946.1875,527.0469 947.5313,527.0469 Q948.1563,527.0469 948.75,526.7813 Q949.3438,526.5 949.9688,525.9219 L949.9688,528.6406 Z " fill="#000000"/><text fill="#000000" font-family="sans-serif" font-size="14" lengthAdjust="spacing" textLength="39" x="961" y="527.8467">Team</text><line style="stroke:#181818;stroke-width:0.5;" x1="933" x2="1002" y1="539" y2="539"/><line style="stroke:#181818;stroke-width:0.5;" x1="933" x2="1002" y1="547" y2="547"/></g><!--MD5=[5f0899136ed8f523b18ed05779c24112]
class Match--><g id="elem_Match"><rect codeLine="19" fill="#F1F1F1" height="48" id="Match" rx="2.5" ry="2.5" style="stroke:#181818;stroke-width:0.5;" width="74" x="728.5" y="132"/><ellipse cx="743.5" cy="148" fill="#ADD1B2" rx="11" ry="11" style="stroke:#181818;stroke-width:1.0;"/><path d="M746.4688,153.6406 Q745.8906,153.9375 745.25,154.0781 Q744.6094,154.2344 743.9063,154.2344 Q741.4063,154.2344 740.0781,152.5938 Q738.7656,150.9375 738.7656,147.8125 Q738.7656,144.6875 740.0781,143.0313 Q741.4063,141.375 743.9063,141.375 Q744.6094,141.375 745.25,141.5313 Q745.9063,141.6875 746.4688,141.9844 L746.4688,144.7031 Q745.8438,144.125 745.25,143.8594 Q744.6563,143.5781 744.0313,143.5781 Q742.6875,143.5781 742,144.6563 Q741.3125,145.7188 741.3125,147.8125 Q741.3125,149.9063 742,150.9844 Q742.6875,152.0469 744.0313,152.0469 Q744.6563,152.0469 745.25,151.7813 Q745.8438,151.5 746.4688,150.9219 L746.4688,153.6406 Z " fill="#000000"/><text fill="#000000" font-family="sans-serif" font-size="14" lengthAdjust="spacing" textLength="42" x="757.5" y="152.8467">Match</text><line style="stroke:#181818;stroke-width:0.5;" x1="729.5" x2="801.5" y1="164" y2="164"/><line style="stroke:#181818;stroke-width:0.5;" x1="729.5" x2="801.5" y1="172" y2="172"/></g><!--MD5=[982e747280c54c931efc163dd789fd75]
class SimpleMatchSimulator--><g id="elem_SimpleMatchSimulator"><rect codeLine="20" fill="#F1F1F1" height="48" id="SimpleMatchSimulator" rx="2.5" ry="2.5" style="stroke:#181818;stroke-width:0.5;" width="184" x="673.5" y="7"/><ellipse cx="688.5" cy="23" fill="#ADD1B2" rx="11" ry="11" style="stroke:#181818;stroke-width:1.0;"/><path d="M691.4688,28.6406 Q690.8906,28.9375 690.25,29.0781 Q689.6094,29.2344 688.9063,29.2344 Q686.4063,29.2344 685.0781,27.5938 Q683.7656,25.9375 683.7656,22.8125 Q683.7656,19.6875 685.0781,18.0313 Q686.4063,16.375 688.9063,16.375 Q689.6094,16.375 690.25,16.5313 Q690.9063,16.6875 691.4688,16.9844 L691.4688,19.7031 Q690.8438,19.125 690.25,18.8594 Q689.6563,18.5781 689.0313,18.5781 Q687.6875,18.5781 687,19.6563 Q686.3125,20.7188 686.3125,22.8125 Q686.3125,24.9063 687,25.9844 Q687.6875,27.0469 689.0313,27.0469 Q689.6563,27.0469 690.25,26.7813 Q690.8438,26.5 691.4688,25.9219 L691.4688,28.6406 Z " fill="#000000"/><text fill="#000000" font-family="sans-serif" font-size="14" lengthAdjust="spacing" textLength="152" x="702.5" y="27.8467">SimpleMatchSimulator</text><line style="stroke:#181818;stroke-width:0.5;" x1="674.5" x2="856.5" y1="39" y2="39"/><line style="stroke:#181818;stroke-width:0.5;" x1="674.5" x2="856.5" y1="47" y2="47"/></g><!--MD5=[547108e20ff8a778761690317e01a0e5]
class ActionOutcomePredictor--><g id="elem_ActionOutcomePredictor"><rect codeLine="21" fill="#F1F1F1" height="48" id="ActionOutcomePredictor" rx="2.5" ry="2.5" style="stroke:#181818;stroke-width:0.5;" width="201" x="893" y="7"/><ellipse cx="908" cy="23" fill="#ADD1B2" rx="11" ry="11" style="stroke:#181818;stroke-width:1.0;"/><path d="M910.9688,28.6406 Q910.3906,28.9375 909.75,29.0781 Q909.1094,29.2344 908.4063,29.2344 Q905.9063,29.2344 904.5781,27.5938 Q903.2656,25.9375 903.2656,22.8125 Q903.2656,19.6875 904.5781,18.0313 Q905.9063,16.375 908.4063,16.375 Q909.1094,16.375 909.75,16.5313 Q910.4063,16.6875 910.9688,16.9844 L910.9688,19.7031 Q910.3438,19.125 909.75,18.8594 Q909.1563,18.5781 908.5313,18.5781 Q907.1875,18.5781 906.5,19.6563 Q905.8125,20.7188 905.8125,22.8125 Q905.8125,24.9063 906.5,25.9844 Q907.1875,27.0469 908.5313,27.0469 Q909.1563,27.0469 909.75,26.7813 Q910.3438,26.5 910.9688,25.9219 L910.9688,28.6406 Z " fill="#000000"/><text fill="#000000" font-family="sans-serif" font-size="14" lengthAdjust="spacing" textLength="169" x="922" y="27.8467">ActionOutcomePredictor</text><line style="stroke:#181818;stroke-width:0.5;" x1="894" x2="1093" y1="39" y2="39"/><line style="stroke:#181818;stroke-width:0.5;" x1="894" x2="1093" y1="47" y2="47"/></g><!--MD5=[7911870ce62b9b2be5ad77d6ef61ea60]
class PlayerDecisionModel--><g id="elem_PlayerDecisionModel"><rect codeLine="22" fill="#F1F1F1" height="48" id="PlayerDecisionModel" rx="2.5" ry="2.5" style="stroke:#181818;stroke-width:0.5;" width="175" x="1042" y="132"/><ellipse cx="1057" cy="148" fill="#ADD1B2" rx="11" ry="11" style="stroke:#181818;stroke-width:1.0;"/><path d="M1059.9688,153.6406 Q1059.3906,153.9375 1058.75,154.0781 Q1058.1094,154.2344 1057.4063,154.2344 Q1054.9063,154.2344 1053.5781,152.5938 Q1052.2656,150.9375 1052.2656,147.8125 Q1052.2656,144.6875 1053.5781,143.0313 Q1054.9063,141.375 1057.4063,141.375 Q1058.1094,141.375 1058.75,141.5313 Q1059.4063,141.6875 1059.9688,141.9844 L1059.9688,144.7031 Q1059.3438,144.125 1058.75,143.8594 Q1058.1563,143.5781 1057.5313,143.5781 Q1056.1875,143.5781 1055.5,144.6563 Q1054.8125,145.7188 1054.8125,147.8125 Q1054.8125,149.9063 1055.5,150.9844 Q1056.1875,152.0469 1057.5313,152.0469 Q1058.1563,152.0469 1058.75,151.7813 Q1059.3438,151.5 1059.9688,150.9219 L1059.9688,153.6406 Z " fill="#000000"/><text fill="#000000" font-family="sans-serif" font-size="14" lengthAdjust="spacing" textLength="143" x="1071" y="152.8467">PlayerDecisionModel</text><line style="stroke:#181818;stroke-width:0.5;" x1="1043" x2="1216" y1="164" y2="164"/><line style="stroke:#181818;stroke-width:0.5;" x1="1043" x2="1216" y1="172" y2="172"/></g><!--MD5=[aa9b842f3c8ba188a250305e4e2be139]
class PlayerDecisionTrainer--><g id="elem_PlayerDecisionTrainer"><rect codeLine="23" fill="#F1F1F1" height="48" id="PlayerDecisionTrainer" rx="2.5" ry="2.5" style="stroke:#181818;stroke-width:0.5;" width="181" x="1361" y="7"/><ellipse cx="1376" cy="23" fill="#ADD1B2" rx="11" ry="11" style="stroke:#181818;stroke-width:1.0;"/><path d="M1378.9688,28.6406 Q1378.3906,28.9375 1377.75,29.0781 Q1377.1094,29.2344 1376.4063,29.2344 Q1373.9063,29.2344 1372.5781,27.5938 Q1371.2656,25.9375 1371.2656,22.8125 Q1371.2656,19.6875 1372.5781,18.0313 Q1373.9063,16.375 1376.4063,16.375 Q1377.1094,16.375 1377.75,16.5313 Q1378.4063,16.6875 1378.9688,16.9844 L1378.9688,19.7031 Q1378.3438,19.125 1377.75,18.8594 Q1377.1563,18.5781 1376.5313,18.5781 Q1375.1875,18.5781 1374.5,19.6563 Q1373.8125,20.7188 1373.8125,22.8125 Q1373.8125,24.9063 1374.5,25.9844 Q1375.1875,27.0469 1376.5313,27.0469 Q1377.1563,27.0469 1377.75,26.7813 Q1378.3438,26.5 1378.9688,25.9219 L1378.9688,28.6406 Z " fill="#000000"/><text fill="#000000" font-family="sans-serif" font-size="14" lengthAdjust="spacing" textLength="149" x="1390" y="27.8467">PlayerDecisionTrainer</text><line style="stroke:#181818;stroke-width:0.5;" x1="1362" x2="1541" y1="39" y2="39"/><line style="stroke:#181818;stroke-width:0.5;" x1="1362" x2="1541" y1="47" y2="47"/></g><!--MD5=[87851aff569e8cf13f5a83ac0bf92be3]
class FeatureExtractor--><g id="elem_FeatureExtractor"><rect codeLine="24" fill="#F1F1F1" height="48" id="FeatureExtractor" rx="2.5" ry="2.5" style="stroke:#181818;stroke-width:0.5;" width="146" x="1252.5" y="132"/><ellipse cx="1267.5" cy="148" fill="#ADD1B2" rx="11" ry="11" style="stroke:#181818;stroke-width:1.0;"/><path d="M1270.4688,153.6406 Q1269.8906,153.9375 1269.25,154.0781 Q1268.6094,154.2344 1267.9063,154.2344 Q1265.4063,154.2344 1264.0781,152.5938 Q1262.7656,150.9375 1262.7656,147.8125 Q1262.7656,144.6875 1264.0781,143.0313 Q1265.4063,141.375 1267.9063,141.375 Q1268.6094,141.375 1269.25,141.5313 Q1269.9063,141.6875 1270.4688,141.9844 L1270.4688,144.7031 Q1269.8438,144.125 1269.25,143.8594 Q1268.6563,143.5781 1268.0313,143.5781 Q1266.6875,143.5781 1266,144.6563 Q1265.3125,145.7188 1265.3125,147.8125 Q1265.3125,149.9063 1266,150.9844 Q1266.6875,152.0469 1268.0313,152.0469 Q1268.6563,152.0469 1269.25,151.7813 Q1269.8438,151.5 1270.4688,150.9219 L1270.4688,153.6406 Z " fill="#000000"/><text fill="#000000" font-family="sans-serif" font-size="14" lengthAdjust="spacing" textLength="114" x="1281.5" y="152.8467">FeatureExtractor</text><line style="stroke:#181818;stroke-width:0.5;" x1="1253.5" x2="1397.5" y1="164" y2="164"/><line style="stroke:#181818;stroke-width:0.5;" x1="1253.5" x2="1397.5" y1="172" y2="172"/></g><!--MD5=[19fd7adf7827715f17da61bc3412038c]
class AIPlayerDecisionSystem--><g id="elem_AIPlayerDecisionSystem"><rect codeLine="25" fill="#F1F1F1" height="48" id="AIPlayerDecisionSystem" rx="2.5" ry="2.5" style="stroke:#181818;stroke-width:0.5;" width="196" x="1129.5" y="7"/><ellipse cx="1144.5" cy="23" fill="#ADD1B2" rx="11" ry="11" style="stroke:#181818;stroke-width:1.0;"/><path d="M1147.4688,28.6406 Q1146.8906,28.9375 1146.25,29.0781 Q1145.6094,29.2344 1144.9063,29.2344 Q1142.4063,29.2344 1141.0781,27.5938 Q1139.7656,25.9375 1139.7656,22.8125 Q1139.7656,19.6875 1141.0781,18.0313 Q1142.4063,16.375 1144.9063,16.375 Q1145.6094,16.375 1146.25,16.5313 Q1146.9063,16.6875 1147.4688,16.9844 L1147.4688,19.7031 Q1146.8438,19.125 1146.25,18.8594 Q1145.6563,18.5781 1145.0313,18.5781 Q1143.6875,18.5781 1143,19.6563 Q1142.3125,20.7188 1142.3125,22.8125 Q1142.3125,24.9063 1143,25.9844 Q1143.6875,27.0469 1145.0313,27.0469 Q1145.6563,27.0469 1146.25,26.7813 Q1146.8438,26.5 1147.4688,25.9219 L1147.4688,28.6406 Z " fill="#000000"/><text fill="#000000" font-family="sans-serif" font-size="14" lengthAdjust="spacing" textLength="164" x="1158.5" y="27.8467">AIPlayerDecisionSystem</text><line style="stroke:#181818;stroke-width:0.5;" x1="1130.5" x2="1324.5" y1="39" y2="39"/><line style="stroke:#181818;stroke-width:0.5;" x1="1130.5" x2="1324.5" y1="47" y2="47"/></g><!--MD5=[ae8e3d9489416fade48e2abd6e925d9f]
link Ball to Player--><g id="link_Ball_Player"><path codeLine="28" d="M737.4,300.68 C704.65,322.46 650.52,358.45 615.18,381.94 " fill="none" id="Ball-Player" style="stroke:#181818;stroke-width:1.0;"/><polygon fill="#000000" points="685.3363,346.3347,694.4957,343.7742,691.2413,338.8794,685.3363,346.3347" style="stroke:#000000;stroke-width:1.0;"/><text fill="#000000" font-family="sans-serif" font-size="13" lengthAdjust="spacing" textLength="71" x="698.5" y="348.0669">possession</text><text fill="#000000" font-family="sans-serif" font-size="13" lengthAdjust="spacing" textLength="8" x="721.5756" y="300.732">1</text><text fill="#000000" font-family="sans-serif" font-size="13" lengthAdjust="spacing" textLength="24" x="596.9917" y="370.9367">0..1</text></g><!--MD5=[35fd51bd24ef21fbeb6481cbf66cbf21]
link Ball to Team--><g id="link_Ball_Team"><path codeLine="29" d="M793.83,301.15 C858,344.64 1009.35,448.07 1015.5,460 C1024.01,476.5 1012.51,493.72 998.64,506.95 " fill="none" id="Ball-Team" style="stroke:#181818;stroke-width:1.0;"/><polygon fill="#000000" points="987.027,409.6105,982.7297,401.1261,978.5635,405.2723,987.027,409.6105" style="stroke:#000000;stroke-width:1.0;"/><text fill="#000000" font-family="sans-serif" font-size="13" lengthAdjust="spacing" textLength="71" x="992.5" y="410.5669">possession</text><text fill="#000000" font-family="sans-serif" font-size="13" lengthAdjust="spacing" textLength="8" x="801.3063" y="301.1576">1</text><text fill="#000000" font-family="sans-serif" font-size="13" lengthAdjust="spacing" textLength="24" x="979.5446" y="495.9492">0..1</text></g><!--MD5=[3e4705e52f6ea3a36b44a21a43aec0e0]
link Player to Team--><g id="link_Player_Team"><path codeLine="31" d="M571.98,430.25 C568.06,445.38 566.42,464.55 577.5,477 C615.73,519.95 777.59,498.76 834.5,507 C862.51,511.05 893.7,516.4 918.83,520.92 " fill="none" id="Player-to-Team" style="stroke:#181818;stroke-width:1.0;"/><polygon fill="none" points="931.74,523.27,926.5484,518.2653,919.9319,521.1327,925.1235,526.1374,931.74,523.27" style="stroke:#181818;stroke-width:1.0;"/><polygon fill="#000000" points="587.3374,469.831,579.3297,464.7,577.8431,470.3867,587.3374,469.831" style="stroke:#000000;stroke-width:1.0;"/><text fill="#000000" font-family="sans-serif" font-size="13" lengthAdjust="spacing" textLength="67" x="591.5" y="473.0669">belongs to</text><text fill="#000000" font-family="sans-serif" font-size="13" lengthAdjust="spacing" textLength="31" x="535.1251" y="450.0721">11..*</text><text fill="#000000" font-family="sans-serif" font-size="13" lengthAdjust="spacing" textLength="8" x="915.9123" y="517.3516">1</text></g><!--MD5=[f6131654d5bae01bf523e6b09ccedc4c]
link Team to Player--><g id="link_Team_Player"><path codeLine="34" d="M931.74,523.62 C863.82,511.4 721,485.18 699.5,477 C684.9,471.44 654.3,453.39 627.79,437.01 " fill="none" id="Team-to-Player" style="stroke:#181818;stroke-width:1.0;"/><polygon fill="#181818" points="616.74,430.14,619.7271,436.7033,626.9345,436.4703,623.9473,429.907,616.74,430.14" style="stroke:#181818;stroke-width:1.0;"/><polygon fill="#000000" points="699.6914,467.1962,707.5848,472.5013,709.1956,466.8485,699.6914,467.1962" style="stroke:#000000;stroke-width:1.0;"/><text fill="#000000" font-family="sans-serif" font-size="13" lengthAdjust="spacing" textLength="23" x="713.5" y="473.0669">has</text><text fill="#000000" font-family="sans-serif" font-size="13" lengthAdjust="spacing" textLength="8" x="915.9123" y="535.7236">1</text><text fill="#000000" font-family="sans-serif" font-size="13" lengthAdjust="spacing" textLength="31" x="590.7954" y="449.9353">11..*</text></g><!--MD5=[f6131654d5bae01bf523e6b09ccedc4c]
link Team to Player--><g id="link_Team_Player"><path codeLine="35" d="M931.91,521.98 C893.3,512.84 830.13,496.61 777.5,477 C760.92,470.82 757.93,466.56 741.5,460 C704.63,445.29 661.9,431.36 629.74,421.48 " fill="none" id="Team-to-Player-1" style="stroke:#181818;stroke-width:1.0;"/><polygon fill="none" points="617.08,417.64,621.6559,423.2132,628.5604,421.1329,623.9845,415.5596,617.08,417.64" style="stroke:#181818;stroke-width:1.0;"/><polygon fill="#000000" points="777.7555,466.9884,785.4108,472.6317,787.2659,467.0543,777.7555,466.9884" style="stroke:#000000;stroke-width:1.0;"/><text fill="#000000" font-family="sans-serif" font-size="13" lengthAdjust="spacing" textLength="38" x="791.5" y="473.0669">lineup</text><text fill="#000000" font-family="sans-serif" font-size="13" lengthAdjust="spacing" textLength="8" x="916.1157" y="515.8076">1</text><text fill="#000000" font-family="sans-serif" font-size="13" lengthAdjust="spacing" textLength="32" x="625.1313" y="432.6479">0..11</text></g><!--MD5=[f6131654d5bae01bf523e6b09ccedc4c]
link Team to Player--><g id="link_Team_Player"><path codeLine="36" d="M931.89,510.6 C896,491.16 844.54,463.61 834.5,460 C765.82,435.31 682.33,420.64 630.29,413.2 " fill="none" id="Team-to-Player-2" style="stroke:#181818;stroke-width:1.0;"/><polygon fill="none" points="617.13,411.38,622.5241,416.1657,629.0164,413.0272,623.6223,408.2415,617.13,411.38" style="stroke:#181818;stroke-width:1.0;"/><polygon fill="#000000" points="867.742,467.0298,875.4462,472.6062,877.2525,467.0128,867.742,467.0298" style="stroke:#000000;stroke-width:1.0;"/><text fill="#000000" font-family="sans-serif" font-size="13" lengthAdjust="spacing" textLength="39" x="881.5" y="473.0669">bench</text><text fill="#000000" font-family="sans-serif" font-size="13" lengthAdjust="spacing" textLength="8" x="918.8509" y="496.1855">1</text><text fill="#000000" font-family="sans-serif" font-size="13" lengthAdjust="spacing" textLength="23" x="625.1015" y="408.1068">0..*</text></g><!--MD5=[f6131654d5bae01bf523e6b09ccedc4c]
link Team to Player--><g id="link_Team_Player"><path codeLine="37" d="M960.59,506.75 C954.66,491 944.5,471.11 928.5,460 C881.13,427.12 714.52,413.92 630.19,409.25 " fill="none" id="Team-to-Player-3" style="stroke:#181818;stroke-width:1.0;"/><polygon fill="none" points="617.15,408.56,622.9307,412.8708,629.1333,409.1928,623.3526,404.882,617.15,408.56" style="stroke:#181818;stroke-width:1.0;"/><polygon fill="#000000" points="945.7044,467.1513,953.5479,472.53,955.2115,466.8925,945.7044,467.1513" style="stroke:#000000;stroke-width:1.0;"/><text fill="#000000" font-family="sans-serif" font-size="13" lengthAdjust="spacing" textLength="47" x="959.5" y="473.0669">captain</text><text fill="#000000" font-family="sans-serif" font-size="13" lengthAdjust="spacing" textLength="8" x="949.9307" y="496.094">1</text><text fill="#000000" font-family="sans-serif" font-size="13" lengthAdjust="spacing" textLength="8" x="625.0669" y="403.251">1</text></g><!--MD5=[c80d6f46dd55879b61f1c1f17c47dc38]
link Player to Player--><g id="link_Player_Player"><path codeLine="32" d="M617.29,394.72 C635.63,393.16 652,396.92 652,406 C652,415.08 635.63,418.84 617.29,417.28 " fill="none" id="Player-Player" style="stroke:#181818;stroke-width:1.0;"/><polygon fill="#000000" points="656.5762,411.0484,660.2712,402.285,654.4145,401.7868,656.5762,411.0484" style="stroke:#000000;stroke-width:1.0;"/><text fill="#000000" font-family="sans-serif" font-size="13" lengthAdjust="spacing" textLength="40" x="671" y="410.5669">marks</text><text fill="#000000" font-family="sans-serif" font-size="13" lengthAdjust="spacing" textLength="8" x="625.0656" y="388.2196">1</text><text fill="#000000" font-family="sans-serif" font-size="13" lengthAdjust="spacing" textLength="24" x="625.0659" y="414.9599">0..1</text></g><!--MD5=[6d9428d8d0d58428c118569d1aece496]
link Match to Ball--><g id="link_Match_Ball"><path codeLine="39" d="M765.5,180.14 C765.5,198.09 765.5,223.3 765.5,243.91 " fill="none" id="Match-to-Ball" style="stroke:#181818;stroke-width:1.0;"/><polygon fill="#181818" points="765.5,256.97,769.5,250.97,765.5,244.97,761.5,250.97,765.5,256.97" style="stroke:#181818;stroke-width:1.0;"/><polygon fill="#000000" points="770.5,223.5664,773.4389,214.5213,767.5611,214.5213,770.5,223.5664" style="stroke:#000000;stroke-width:1.0;"/><text fill="#000000" font-family="sans-serif" font-size="13" lengthAdjust="spacing" textLength="23" x="779.5" y="223.0669">has</text><text fill="#000000" font-family="sans-serif" font-size="13" lengthAdjust="spacing" textLength="8" x="756.525" y="199.9353">1</text><text fill="#000000" font-family="sans-serif" font-size="13" lengthAdjust="spacing" textLength="8" x="756.475" y="245.9743">1</text></g><!--MD5=[61a40643b286db522194e92c20bd3588]
link Match to Team--><g id="link_Match_Team"><path codeLine="40" d="M796.06,180.1 C844.88,216.91 943.6,290.93 1028.5,352 C1047.42,365.61 1060.72,361.34 1071.5,382 C1091.86,421.03 1073.49,444.78 1043.5,477 C1034.97,486.17 1024.6,494.66 1014.3,502.04 " fill="none" id="Match-to-Team" style="stroke:#181818;stroke-width:1.0;"/><polygon fill="none" points="1003.24,509.59,1010.4507,509.5131,1013.1531,502.8275,1005.9424,502.9044,1003.24,509.59" style="stroke:#181818;stroke-width:1.0;"/><polygon fill="#000000" points="1036.3056,347.7051,1033.6629,338.5691,1028.7976,341.8672,1036.3056,347.7051" style="stroke:#000000;stroke-width:1.0;"/><text fill="#000000" font-family="sans-serif" font-size="13" lengthAdjust="spacing" textLength="78" x="1042.5" y="348.0669">home_team</text><text fill="#000000" font-family="sans-serif" font-size="13" lengthAdjust="spacing" textLength="8" x="794.534" y="199.8856">1</text><text fill="#000000" font-family="sans-serif" font-size="13" lengthAdjust="spacing" textLength="8" x="1011.0638" y="500.9783">1</text></g><!--MD5=[61a40643b286db522194e92c20bd3588]
link Match to Team--><g id="link_Match_Team"><path codeLine="41" d="M802.51,162.41 C878.95,175.79 1053.1,218.28 1125.5,335 C1160.61,391.61 1125.54,430.84 1077.5,477 C1060.08,493.74 1036.36,506.08 1015.41,514.62 " fill="none" id="Match-to-Team-1" style="stroke:#181818;stroke-width:1.0;"/><polygon fill="none" points="1003.13,519.33,1010.1651,520.9134,1014.3325,515.0284,1007.2974,513.445,1003.13,519.33" style="stroke:#181818;stroke-width:1.0;"/><polygon fill="#000000" points="1142.0865,347.8454,1139.9226,338.5843,1134.8923,341.6249,1142.0865,347.8454" style="stroke:#000000;stroke-width:1.0;"/><text fill="#000000" font-family="sans-serif" font-size="13" lengthAdjust="spacing" textLength="73" x="1148.5" y="348.0669">away_team</text><text fill="#000000" font-family="sans-serif" font-size="13" lengthAdjust="spacing" textLength="8" x="810.5838" y="177.2285">1</text><text fill="#000000" font-family="sans-serif" font-size="13" lengthAdjust="spacing" textLength="8" x="1010.9322" y="530.589">1</text></g><!--MD5=[61a40643b286db522194e92c20bd3588]
link Match to Team--><g id="link_Match_Team"><path codeLine="42" d="M802.83,156.97 C897.14,159.25 1143.61,180.31 1230.5,335 C1284.49,431.13 1105.69,493.53 1015.86,518.13 " fill="none" id="Match-to-Team-2" style="stroke:#181818;stroke-width:1.0;"/><polygon fill="none" points="1003.29,521.49,1010.1195,523.8046,1014.8828,518.3907,1008.0533,516.076,1003.29,521.49" style="stroke:#181818;stroke-width:1.0;"/><polygon fill="#000000" points="1245.0403,347.873,1242.9763,338.5891,1237.9135,341.5754,1245.0403,347.873" style="stroke:#000000;stroke-width:1.0;"/><text fill="#000000" font-family="sans-serif" font-size="13" lengthAdjust="spacing" textLength="130" x="1251.5" y="348.0669">team_in_possession</text><text fill="#000000" font-family="sans-serif" font-size="13" lengthAdjust="spacing" textLength="8" x="810.4502" y="152.8452">1</text><text fill="#000000" font-family="sans-serif" font-size="13" lengthAdjust="spacing" textLength="24" x="1010.9065" y="515.8565">0..1</text></g><!--MD5=[61bad7068734f81f42917c84be5c58c8]
link SimpleMatchSimulator to Match--><g id="link_SimpleMatchSimulator_Match"><path codeLine="44" d="M765.5,55.14 C765.5,73.09 765.5,98.3 765.5,118.91 " fill="none" id="SimpleMatchSimulator-to-Match" style="stroke:#181818;stroke-width:1.0;"/><polygon fill="none" points="765.5,131.97,769.5,125.97,765.5,119.97,761.5,125.97,765.5,131.97" style="stroke:#181818;stroke-width:1.0;"/><polygon fill="#000000" points="770.5,98.5664,773.4389,89.5213,767.5611,89.5213,770.5,98.5664" style="stroke:#000000;stroke-width:1.0;"/><text fill="#000000" font-family="sans-serif" font-size="13" lengthAdjust="spacing" textLength="62" x="779.5" y="98.0669">simulates</text><text fill="#000000" font-family="sans-serif" font-size="13" lengthAdjust="spacing" textLength="8" x="756.525" y="74.9353">1</text><text fill="#000000" font-family="sans-serif" font-size="13" lengthAdjust="spacing" textLength="8" x="756.475" y="120.9743">1</text></g><!--MD5=[1b63ad2a2041c5804d791053c3bc743e]
link AIPlayerDecisionSystem to PlayerDecisionModel--><g id="link_AIPlayerDecisionSystem_PlayerDecisionModel"><path codeLine="46" d="M1209.07,55.14 C1194.15,73.86 1172.93,100.49 1156.16,121.54 " fill="none" id="AIPlayerDecisionSystem-to-PlayerDecisionModel" style="stroke:#181818;stroke-width:1.0;"/><polygon fill="#181818" points="1147.85,131.97,1154.7168,129.7682,1155.3254,122.5829,1148.4587,124.7846,1147.85,131.97" style="stroke:#181818;stroke-width:1.0;"/><polygon fill="#000000" points="1186.3841,97.4768,1194.3193,92.2343,1189.7224,88.5714,1186.3841,97.4768" style="stroke:#000000;stroke-width:1.0;"/><text fill="#000000" font-family="sans-serif" font-size="13" lengthAdjust="spacing" textLength="30" x="1198.5" y="98.0669">uses</text><text fill="#000000" font-family="sans-serif" font-size="13" lengthAdjust="spacing" textLength="8" x="1195.6027" y="74.9353">1</text><text fill="#000000" font-family="sans-serif" font-size="13" lengthAdjust="spacing" textLength="8" x="1143.5272" y="120.9743">1</text></g><!--MD5=[e9d8394e28df7151a09aeabdd15c2f32]
link AIPlayerDecisionSystem to FeatureExtractor--><g id="link_AIPlayerDecisionSystem_FeatureExtractor"><path codeLine="47" d="M1245.93,55.14 C1260.85,73.86 1282.07,100.49 1298.84,121.54 " fill="none" id="AIPlayerDecisionSystem-to-FeatureExtractor" style="stroke:#181818;stroke-width:1.0;"/><polygon fill="#181818" points="1307.15,131.97,1306.5413,124.7846,1299.6746,122.5829,1300.2832,129.7682,1307.15,131.97" style="stroke:#181818;stroke-width:1.0;"/><polygon fill="#000000" points="1290.6159,97.4768,1287.2776,88.5714,1282.6807,92.2343,1290.6159,97.4768" style="stroke:#000000;stroke-width:1.0;"/><text fill="#000000" font-family="sans-serif" font-size="13" lengthAdjust="spacing" textLength="30" x="1296.5" y="98.0669">uses</text><text fill="#000000" font-family="sans-serif" font-size="13" lengthAdjust="spacing" textLength="8" x="1241.4473" y="74.9353">1</text><text fill="#000000" font-family="sans-serif" font-size="13" lengthAdjust="spacing" textLength="8" x="1293.4228" y="120.9743">1</text></g><!--MD5=[787499d8fb28bfd69fa56577a967f079]
link Ball to PhysicalState--><g id="link_Ball_PhysicalState"><path codeLine="50" d="M737.49,298.2 C731.71,300.91 725.53,303.37 719.5,305 C520.88,358.74 458.75,292.15 257.5,335 C208.9,345.35 156.07,365.75 118.65,381.87 " fill="none" id="Ball-PhysicalState" style="stroke:#181818;stroke-width:1.0;"/></g><!--MD5=[52db455e72892f70b6b4b560cb156a5a]
link Ball to BallAction--><g id="link_Ball_BallAction"><path codeLine="51" d="M737.49,298.17 C731.7,300.89 725.53,303.35 719.5,305 C627.53,330.14 379.17,297.53 291.5,335 C267.91,345.08 246.8,365.52 232.67,381.72 " fill="none" id="Ball-BallAction" style="stroke:#181818;stroke-width:1.0;"/></g><!--MD5=[1e0748e840d8ba97c327debc982ea19f]
link Ball to FieldZone--><g id="link_Ball_FieldZone"><path codeLine="52" d="M737.47,296.52 C731.58,299.43 725.37,302.39 719.5,305 C668.93,327.48 325.81,460.09 195.01,510.54 " fill="none" id="Ball-FieldZone" style="stroke:#181818;stroke-width:1.0;"/></g><!--MD5=[dfcc45f7c46438091cb1db5562cbe870]
link Player to PlayingPosition--><g id="link_Player_PlayingPosition"><path codeLine="54" d="M543.88,421.49 C517.83,434.12 489.71,453.98 503.5,477 C511.06,489.63 522.78,499.42 535.53,506.94 " fill="none" id="Player-PlayingPosition" style="stroke:#181818;stroke-width:1.0;"/></g><!--MD5=[b5603568eddea525ca1c8be5efc8215c]
link Player to PlayerAction--><g id="link_Player_PlayerAction"><path codeLine="55" d="M543.81,422.45 C493.27,443.75 401.82,482.27 343.19,506.96 " fill="none" id="Player-PlayerAction" style="stroke:#181818;stroke-width:1.0;"/></g><!--MD5=[5ad8fe4f3bf689a70e0ad7da21b6be2c]
link Player to ActionPhase--><g id="link_Player_ActionPhase"><path codeLine="56" d="M543.64,424.98 C526.99,434.12 507.69,446.22 492.5,460 C477.48,473.63 463.93,492.17 454.44,506.75 " fill="none" id="Player-ActionPhase" style="stroke:#181818;stroke-width:1.0;"/></g><!--MD5=[191421bcdafac78d2f08fe3d9e1a4e29]
link Player to FieldZone--><g id="link_Player_FieldZone"><path codeLine="57" d="M543.84,418.04 C496.22,432.26 410.42,457.46 336.5,477 C281.68,491.49 266.97,491.23 212.5,507 C206.87,508.63 201.02,510.43 195.22,512.3 " fill="none" id="Player-FieldZone" style="stroke:#181818;stroke-width:1.0;"/></g><!--MD5=[9d10d028c761dc0a3a64587bb7e36371]
link Player to InjuryStatus--><g id="link_Player_InjuryStatus"><path codeLine="58" d="M555.62,430.18 C543.21,444.55 533.04,462.89 544.5,477 C585.43,527.41 624.65,490.68 687.5,507 C693.36,508.52 699.45,510.22 705.5,511.98 " fill="none" id="Player-InjuryStatus" style="stroke:#181818;stroke-width:1.0;"/></g><!--MD5=[ac81512dbfc440338f2ad06533422e4f]
link Team to Formation--><g id="link_Team_Formation"><path codeLine="60" d="M982.91,555.22 C994.82,573.16 1011.22,597.89 1023.12,615.83 " fill="none" id="Team-Formation" style="stroke:#181818;stroke-width:1.0;"/></g><!--MD5=[b913cd58ab50376c1b03cb004266739b]
link Team to TeamPhase--><g id="link_Team_TeamPhase"><path codeLine="61" d="M951.88,555.22 C939.8,573.16 923.16,597.89 911.09,615.83 " fill="none" id="Team-TeamPhase" style="stroke:#181818;stroke-width:1.0;"/></g><!--MD5=[ce21c5fbc75008a05282813c7f9256c7]
link Match to MatchPeriod--><g id="link_Match_MatchPeriod"><path codeLine="63" d="M728.37,166.64 C661.6,184.07 516.88,222.24 395.5,257 C390.07,258.56 384.42,260.2 378.78,261.87 " fill="none" id="Match-MatchPeriod" style="stroke:#181818;stroke-width:1.0;"/></g><!--MD5=[6edeee12620f7e45bdec7f141debf127]
link Match to GamePhase--><g id="link_Match_GamePhase"><path codeLine="64" d="M728.26,172.58 C677.35,193.88 585.63,232.25 526.71,256.9 " fill="none" id="Match-GamePhase" style="stroke:#181818;stroke-width:1.0;"/></g><!--MD5=[7d4f12306fe9d60ca1da9813e891c635]
link Match to SetPieceStatus--><g id="link_Match_SetPieceStatus"><path codeLine="65" d="M740.67,180.14 C717.07,202.13 681.78,235.01 658.22,256.97 " fill="none" id="Match-SetPieceStatus" style="stroke:#181818;stroke-width:1.0;"/></g><!--MD5=[d03f574f5237d1bad8b7166b04b8d6b9]
@startuml
' Define enums
enum PhysicalState
enum BallAction
enum FieldZone
enum PlayerAction
enum ActionPhase
enum PlayingPosition
enum TeamPhase
enum InjuryStatus
enum MatchPeriod
enum GamePhase
enum SetPieceStatus
enum Formation

' Define main classes
class Ball
class Player
class Team
class Match
class SimpleMatchSimulator
class ActionOutcomePredictor
class PlayerDecisionModel
class PlayerDecisionTrainer
class FeatureExtractor
class AIPlayerDecisionSystem

' Define relationships
Ball "1" - - "0..1" Player: possession >
Ball "1" - - "0..1" Team: possession >

Player "11..*" - -o "1" Team: belongs to >
Player "1" - - "0..1" Player: marks >

Team "1" - -* "11..*" Player: has >
Team "1" - -o "0..11" Player: lineup >
Team "1" - -o "0..*" Player: bench >
Team "1" - -o "1" Player: captain >

Match "1" - -* "1" Ball: has >
Match "1" - -o "1" Team: home_team >
Match "1" - -o "1" Team: away_team >
Match "1" - -o "0..1" Team: team_in_possession >

SimpleMatchSimulator "1" - -o "1" Match: simulates >

AIPlayerDecisionSystem "1" - -* "1" PlayerDecisionModel: uses >
AIPlayerDecisionSystem "1" - -* "1" FeatureExtractor: uses >

' Connect enums to classes that use them
Ball - - PhysicalState
Ball - - BallAction
Ball - - FieldZone

Player - - PlayingPosition
Player - - PlayerAction
Player - - ActionPhase
Player - - FieldZone
Player - - InjuryStatus

Team - - Formation
Team - - TeamPhase

Match - - MatchPeriod
Match - - GamePhase
Match - - SetPieceStatus
@enduml

@startuml
enum PhysicalState
enum BallAction
enum FieldZone
enum PlayerAction
enum ActionPhase
enum PlayingPosition
enum TeamPhase
enum InjuryStatus
enum MatchPeriod
enum GamePhase
enum SetPieceStatus
enum Formation

class Ball
class Player
class Team
class Match
class SimpleMatchSimulator
class ActionOutcomePredictor
class PlayerDecisionModel
class PlayerDecisionTrainer
class FeatureExtractor
class AIPlayerDecisionSystem

Ball "1" - - "0..1" Player: possession >
Ball "1" - - "0..1" Team: possession >

Player "11..*" - -o "1" Team: belongs to >
Player "1" - - "0..1" Player: marks >

Team "1" - -* "11..*" Player: has >
Team "1" - -o "0..11" Player: lineup >
Team "1" - -o "0..*" Player: bench >
Team "1" - -o "1" Player: captain >

Match "1" - -* "1" Ball: has >
Match "1" - -o "1" Team: home_team >
Match "1" - -o "1" Team: away_team >
Match "1" - -o "0..1" Team: team_in_possession >

SimpleMatchSimulator "1" - -o "1" Match: simulates >

AIPlayerDecisionSystem "1" - -* "1" PlayerDecisionModel: uses >
AIPlayerDecisionSystem "1" - -* "1" FeatureExtractor: uses >

Ball - - PhysicalState
Ball - - BallAction
Ball - - FieldZone

Player - - PlayingPosition
Player - - PlayerAction
Player - - ActionPhase
Player - - FieldZone
Player - - InjuryStatus

Team - - Formation
Team - - TeamPhase

Match - - MatchPeriod
Match - - GamePhase
Match - - SetPieceStatus
@enduml

PlantUML version 1.2022.7(Mon Aug 22 17:01:30 UTC 2022)
(GPL source distribution)
Java Runtime: OpenJDK Runtime Environment
JVM: OpenJDK 64-Bit Server VM
Default Encoding: UTF-8
Language: en
Country: null
--></g></svg>